<svg xmlns="http://www.w3.org/2000/svg" viewBox="0 0 316.87 64.61"><title>Asset 4</title><g id="Layer_2" data-name="Layer 2"><g id="Layer_1-2" data-name="Layer 1"><path d="M3.4,5.12c0-1.58-.65-3-2.24-3.3C.23,1.68,0,1.49,0,1S.37.37.93.37c1,0,4.19.42,5.5.42S10.9.37,11.83.37c.61,0,.93.28.93.65s-.23.66-1.11.8C10,2.14,9.41,3.54,9.41,5.12v20.6c0,1.58.61,3,2.24,3.3.88.14,1.11.33,1.11.79s-.32.66-.93.66c-.93,0-4.14-.38-5.4-.38s-4.52.38-5.5.38c-.56,0-.93-.28-.93-.66s.23-.65,1.16-.79c1.59-.28,2.24-1.72,2.24-3.3Z"/><path d="M47.8,5.73c-.19-1.86-.75-3.45-2.75-3.91-1-.24-1.16-.42-1.16-.75s.37-.6,1-.6c1.17,0,3.27.32,4.34.32S52.37.47,53.53.47c.61,0,.93.18.93.6s-.09.51-1.12.75c-2,.46-2.56,2.05-2.74,3.91-.28,3.45-.24,20.54-.24,22.64,0,.89-.46,2.56-1.91,2.56-1,0-1.49-.6-2.14-1.35-1-1.16-19.38-22.5-19.38-22.5s.05,14.68.33,18.12C27.4,27,28,28.65,30,29.07c1,.23,1.16.42,1.16.74,0,.47-.37.66-.93.66-1.21,0-3.31-.38-4.38-.38s-3.12.38-4.33.38c-.56,0-.93-.19-.93-.66,0-.32.14-.51,1.16-.74,2-.42,2.56-2.05,2.7-3.87.28-3.44.14-18.91.14-20.49s-.6-2.52-2.23-2.8c-.89-.14-1.12-.37-1.12-.79s.33-.65.93-.65c.93,0,2.75.37,3.59.37,1.72,0,3-.19,3.91-.19s1.21.24,2.05,1.59C33.4,5,48.13,21.85,48.13,21.85S48.08,9.18,47.8,5.73Z"/><path d="M67.56,5.78c0,6.33,17.19,6.19,17.19,15.14,0,6.29-5.5,10-11.23,10-3.82,0-6.47-1.39-7.92-1.72A10.74,10.74,0,0,0,63.09,29c-.56,0-.84-.28-.84-1.36,0-.79.28-2.32.28-3.4-.05-1.58-.24-2.93-.24-3.26a.71.71,0,0,1,.8-.7c.56,0,.74.75,1,1.4a10,10,0,0,0,9.69,7c4,0,5.83-2.75,5.83-4.76,0-7.12-17.66-6.84-17.66-15.46C61.92,1.86,68.63.05,72.5.05s5.4.88,6.43.88S80.7.56,81.25.56s.89.42.89,1.49c0,2.05.51,5.64.51,6.29s-.37.65-.74.65c-.61,0-.89-.74-1.21-1.4-1.77-3.35-3.87-5.21-8.44-5.21C69.47,2.38,67.56,3.63,67.56,5.78Z"/><path d="M96.86,5.12c0-1.58-.65-3-2.23-3.3-.93-.14-1.17-.33-1.17-.8s.38-.65.94-.65c1,0,4.19.42,5.49.42s4.47-.42,5.41-.42c.6,0,.93.28.93.65s-.23.66-1.12.8c-1.63.32-2.24,1.72-2.24,3.3v20.6c0,1.58.61,3,2.24,3.3.89.14,1.12.33,1.12.79s-.33.66-.93.66c-.94,0-4.15-.38-5.41-.38s-4.52.38-5.49.38c-.56,0-.94-.28-.94-.66s.24-.65,1.17-.79c1.58-.28,2.23-1.72,2.23-3.3Z"/><path d="M115.73,29.77c0-.47.14-.56,1.17-.75,1.58-.32,2.24-1.72,2.24-3.3V5.12c0-1.58-.66-3-2.24-3.3-1-.19-1.17-.28-1.17-.75s.38-.7,1-.7,3.4.19,7.41.19,5.68-.19,8.39-.19c6.84,0,14.76,3.87,14.76,14.12,0,8.8-4.75,16-16.63,16-3.31,0-7.92-.38-9.17-.38s-3.78.38-4.76.38C116.11,30.47,115.73,30.33,115.73,29.77ZM129.24,2.28c-3.58,0-4.09.79-4.09,2V26.55c0,1.07.46,1.68,1.49,1.68h3.16c8.3,0,10.86-5.73,10.86-13.7C140.66,5.59,136.33,2.28,129.24,2.28Z"/><path d="M164.8,17.8v8.43a1.84,1.84,0,0,0,2,1.72c.42,0,5.68.23,8.43-.46s4.71-2.47,6.62-5.59c.41-.7.69-1,1.11-1s.66.28.66.79-2,5.22-2,7.22c0,1.07-.47,1.63-1.44,1.63s-6.2-.47-19.11-.47c-1.25,0-3.77.38-4.75.38-.6,0-1-.14-1-.7s.13-.56,1.16-.75c1.58-.32,2.24-1.72,2.24-3.3V5.12c0-1.58-.66-2.93-2.24-3.26-1-.18-1.16-.32-1.16-.74s.37-.75,1-.75,3.4.24,7.41.24c12.9,0,13.88-.28,14.95-.28s1.45.56,1.45,1.58c0,2.05,1,5.59,1,6.24a.71.71,0,0,1-.7.79c-.56,0-.79-.46-1.07-1.11-1.77-3.36-3.54-5.31-10.48-5.31-3.59,0-4.1.79-4.1,2v8.1c0,1.08.27,1.31,1.3,1.31,2.38,0,5.73.42,8.11-.93,1.77-1,2.14-2.56,2.74-2.56a.62.62,0,0,1,.66.69,17.39,17.39,0,0,0-.47,3.45,36.58,36.58,0,0,0,.61,4.52c0,.51-.28.79-.61.79-.65,0-1.21-1.81-2.52-2.65s-2.23-.7-3.81-.7C165.31,16.54,164.8,16.58,164.8,17.8Z"/><path d="M226.2,0c10,0,17.42,5.78,17.42,15.51S236.22,31,226.2,31s-17.37-5.68-17.37-15.47S216.23,0,226.2,0Zm0,28.7c5.82,0,10.58-5.27,10.58-13.28S232,2.1,226.2,2.1s-10.53,5.31-10.53,13.32S220.43,28.7,226.2,28.7Z"/><path d="M266.55,30.93c-9.69,0-13.37-5.54-13.37-11V5.22c0-1.59-.65-3-2.23-3.31-.94-.14-1.17-.37-1.17-.79s.37-.65.93-.65c1,0,4.19.37,5.5.37s4.47-.37,5.4-.37c.61,0,.94.23.94.65s-.24.65-1.12.79c-1.63.33-2.24,1.72-2.24,3.31V17.84c0,6,2.33,10.62,8.43,10.62,6.39,0,8.9-4.05,8.9-10.85,0,0,0-8.43-.33-11.88-.13-1.86-.74-3.45-2.7-3.91-1-.24-1.16-.42-1.16-.75s.37-.6.93-.6c1.21,0,3.45.32,4.52.32S281,.47,282.25.47c.56,0,.93.18.93.6s-.14.51-1.16.75c-2,.46-2.56,2.05-2.7,3.91-.28,3.45-.24,11.13-.24,12.16C279.08,25.44,275.68,30.93,266.55,30.93Z"/><path d="M300.33,4.38c0-1.49-.65-1.68-1.86-1.68-2.19,0-5.13,1.77-6.9,5.13-.32.6-.51,1.11-1.11,1.11a.7.7,0,0,1-.66-.79c0-.65,1-4.19,1-6.24,0-1.07.47-1.63,1.45-1.63s7.87.51,11.13.51S313.52.28,314.45.28s1.44.56,1.44,1.63c0,2.05,1,5.59,1,6.24a.7.7,0,0,1-.65.79c-.61,0-.79-.51-1.12-1.11-1.72-3.36-4.66-5.13-6.9-5.13-1.21,0-1.86.19-1.86,1.68V25.72c0,1.58.61,3,2.24,3.3.88.14,1.11.33,1.11.79s-.32.66-.93.66c-.93,0-4.14-.38-5.4-.38s-4.52.38-5.5.38c-.56,0-.93-.28-.93-.66s.23-.65,1.17-.79c1.58-.28,2.23-1.72,2.23-3.3Z"/><path d="M29.8,50.26h1.87l5.55,8.29,5.54-8.29h1.89V64h-2l.06-10.2-4.35,6.54H36.09l-4.34-6.5,0,10.16h-2Z"/><path d="M45,64.33H42.31l.06-9.42-3.85,5.77H35.91l-3.82-5.74,0,9.39H29.47V49.93h2.38l5.37,8,5.37-8H45Zm-2-.65h1.35V50.59H42.94l-5.72,8.54L31.5,50.59H30.13V63.68h1.34l0-10.92L36.26,60h1.91L43,52.72Z"/><path d="M64.17,64H62L68.3,50.26h2L76.68,64H74.46L72.74,60.2H65.88Zm2.47-5.52H72l-2.67-5.93Z"/><path d="M77.19,64.33H74.25l-1.72-3.81H66.09l-1.71,3.81H61.44l6.65-14.4h2.47Zm-2.52-.65h1.5l-6-13.09H68.51l-6,13.09H64l1.71-3.81H73Zm-2.19-4.87H66.13l3.18-7.05Zm-5.34-.65h4.33l-2.16-4.81Z"/><path d="M93.41,59.53h2v.21c0,1.32,1.42,2.75,4.31,2.75,2.65,0,4-.92,4-2.24V60.1c0-1.38-1.65-1.89-4.05-2-3-.22-5.85-1.08-5.85-3.81v-.4c0-2.22,1.76-3.85,5.69-3.85s5.85,2,5.85,4.25v.47h-2V54.5c0-1.32-.93-2.73-3.84-2.73-2.55,0-3.66.94-3.66,2.1V54c0,1.67,1.79,2,4.13,2.18,2.77.22,5.77,1,5.77,3.65v.49c0,2.36-2,3.93-6,3.93s-6.32-1.9-6.32-4.3Z"/><path d="M99.73,64.61c-4,0-6.65-1.86-6.65-4.63V59.2h2.67v.54c0,1.21,1.37,2.43,4,2.43,2.27,0,3.62-.72,3.62-1.92V60.1c0-.63-.39-1.5-3.74-1.72-4.09-.29-6.16-1.68-6.16-4.13v-.4c0-1.25.59-4.17,6-4.17,4.56,0,6.18,2.46,6.18,4.57V55H103V54.5c0-.72-.34-2.4-3.51-2.4-2.09,0-3.33.66-3.33,1.77V54c0,1.33,1.4,1.69,3.82,1.85,4,.32,6.08,1.66,6.08,4v.49C106,63,103.68,64.61,99.73,64.61Zm-6-4.75V60c0,2.38,2.42,4,6,4s5.65-1.31,5.65-3.6v-.49c0-1.92-1.84-3-5.47-3.32-2.14-.15-4.43-.47-4.43-2.51v-.16c0-.57.29-2.43,4-2.43s4.13,2.13,4.16,3H105v-.14c0-1.81-1.45-3.92-5.52-3.92-3.41,0-5.37,1.28-5.37,3.52v.4c0,2.07,1.82,3.21,5.55,3.48,1.87.12,4.35.5,4.35,2.37v.15c0,1.61-1.59,2.57-4.27,2.57-3,0-4.56-1.47-4.63-3Z"/><path d="M127.12,52H122V50.26h12.21V52h-5.1V64h-2Z"/><path d="M129.46,64.33h-2.67v-12H121.7v-2.4h12.85v2.4h-5.09Zm-2-.65h1.35v-12h5.1V50.59H122.35v1.09h5.1Z"/><path d="M151.55,50.26h10.18V52h-8.17v4.1h6.84v1.75h-6.84v4.38h8.38V64H151.55Z"/><path d="M162.27,64.33H151.22V49.93h10.84v2.42h-8.17V55.8h6.84v2.41h-6.84v3.72h8.38Zm-10.4-.65h9.74V62.59h-8.38v-5h6.84V56.46h-6.84V51.7h8.18V50.59h-9.54Z"/><path d="M181.91,64h-2V50.26h6.32c3.47,0,5.61,1.49,5.61,4.16v.77c0,2.12-1.46,3.4-4.05,3.87l4.71,5h-2.67l-4.67-4.93V57.62h.64c2.57,0,4-.7,4-2.67v-.27c0-1.85-1.28-2.65-3.6-2.65h-4.31Z"/><path d="M193.25,64.33h-3.57l-4.85-5.12V57.3h1c2.59,0,3.7-.71,3.7-2.35v-.27c0-1-.34-2.33-3.27-2.33h-4v12h-2.67V49.93h6.65c3.72,0,5.94,1.68,5.94,4.49v.77c0,1.46-.67,3.31-3.74,4.07ZM190,63.68h1.77l-4.6-4.84.6-.11c2.5-.45,3.77-1.65,3.77-3.54v-.77c0-2.44-1.92-3.83-5.28-3.83h-6V63.68h1.36v-12h4.64c2.6,0,3.92,1,3.92,3V55c0,2.69-2.48,3-4.35,3h-.31v1Z"/><path d="M210.4,50.26h2V64h-2Z"/><path d="M212.74,64.33h-2.66V49.93h2.66Zm-2-.65h1.36V50.59h-1.36Z"/><path d="M231.2,50.26h2.3l8.13,11-.06-11h2V64h-2.36l-8.09-10.94L233.19,64h-2Z"/><path d="M243.91,64.33h-2.86l-7.59-10.26.06,10.26h-2.65V49.93h2.79l7.64,10.36-.06-10.36h2.67Zm-2.53-.65h1.87V50.59H241.9L242,62.3l-8.63-11.71h-1.81V63.68h1.34l-.07-11.61Z"/><path d="M274.17,59.92c0,2.69-2.53,4.36-6,4.36s-5.95-1.67-5.95-4.36V54.34c0-2.67,2.48-4.36,6-4.36s5.94,1.56,5.94,3.79v.71h-2v-.43c0-1.43-1.6-2.3-4-2.3s-4,1-4,2.87v5c0,1.88,1.62,2.86,3.94,2.86s3.95-1,3.95-2.86V58.37H268.3V56.64h5.87Z"/><path d="M268.19,64.61c-3.75,0-6.28-1.89-6.28-4.69V54.34c0-2.8,2.54-4.68,6.32-4.68s6.27,1.69,6.27,4.11v1h-2.63v-.76c0-1.2-1.43-2-3.64-2s-3.65,1-3.65,2.54v5c0,1.59,1.35,2.54,3.61,2.54,1.09,0,3.62-.25,3.62-2.54V58.7H268V56.31h6.53v3.61C274.5,62.72,272,64.61,268.19,64.61Zm0-14.3c-3.39,0-5.67,1.62-5.67,4v5.58c0,2.41,2.27,4,5.63,4s5.65-1.62,5.65-4V57h-5.22V58h3.84v1.61c0,2-1.63,3.19-4.27,3.19s-4.27-1.22-4.27-3.19v-5c0-2,1.66-3.2,4.31-3.2s4.3,1,4.3,2.63v.1h1.31v-.38C273.84,51.74,271.54,50.31,268.23,50.31Z"/></g></g></svg>